<?xml version="1.0" encoding="utf-8"?>
<!-- Generator: Adobe Illustrator 19.0.0, SVG Export Plug-In . SVG Version: 6.00 Build 0)  -->
<!DOCTYPE svg PUBLIC "-//W3C//DTD SVG 1.1//EN" "http://www.w3.org/Graphics/SVG/1.1/DTD/svg11.dtd">
<svg version="1.1" id="Layer_1" xmlns="http://www.w3.org/2000/svg" xmlns:xlink="http://www.w3.org/1999/xlink" x="0px" y="0px"
	 viewBox="234.3 324.3 143.4 143.4" style="enable-background:new 234.3 324.3 143.4 143.4;" xml:space="preserve">
<style type="text/css">
	.st0{fill:url(#XMLID_9_);}
	.st1{fill:url(#XMLID_10_);}
	.st2{fill:url(#XMLID_11_);}
	.st3{fill:url(#XMLID_12_);}
	.st4{fill:url(#XMLID_13_);}
	.st5{fill:url(#XMLID_14_);}
</style>
<g id="XMLID_1_">
	
		<linearGradient id="XMLID_9_" gradientUnits="userSpaceOnUse" x1="306" y1="468.1609" x2="306" y2="340.0031" gradientTransform="matrix(1 0 0 -1 0 792)">
		<stop  offset="0" style="stop-color:#FED70E"/>
		<stop  offset="1" style="stop-color:#F69221"/>
	</linearGradient>
	<path id="XMLID_7_" class="st0" d="M377.7,396c0,39.6-32.1,71.7-71.7,71.7s-71.7-32.1-71.7-71.7s32.1-71.7,71.7-71.7
		S377.7,356.4,377.7,396z"/>
	
		<radialGradient id="XMLID_10_" cx="244.6475" cy="391.9366" r="1.9362" gradientTransform="matrix(3.7037 0 0 -3.7037 -622.5169 1830.1914)" gradientUnits="userSpaceOnUse">
		<stop  offset="0.129" style="stop-color:#442A17"/>
		<stop  offset="0.4047" style="stop-color:#3F2716"/>
		<stop  offset="0.7969" style="stop-color:#321E11"/>
		<stop  offset="1" style="stop-color:#29170D"/>
	</radialGradient>
	<path id="XMLID_6_" class="st1" d="M290.8,378.6c0,4-3.2,7.2-7.2,7.2s-7.2-3.2-7.2-7.2s3.2-7.2,7.2-7.2
		C287.6,371.4,290.8,374.6,290.8,378.6z"/>
	
		<radialGradient id="XMLID_11_" cx="256.7478" cy="391.9366" r="1.9378" gradientTransform="matrix(3.7037 0 0 -3.7037 -622.5169 1830.1914)" gradientUnits="userSpaceOnUse">
		<stop  offset="0.129" style="stop-color:#442A17"/>
		<stop  offset="0.4047" style="stop-color:#3F2716"/>
		<stop  offset="0.7969" style="stop-color:#321E11"/>
		<stop  offset="1" style="stop-color:#29170D"/>
	</radialGradient>
	<path id="XMLID_5_" class="st2" d="M335.6,378.6c0,4-3.2,7.2-7.2,7.2s-7.2-3.2-7.2-7.2s3.2-7.2,7.2-7.2S335.6,374.6,335.6,378.6z"
		/>
	<g>
		
			<radialGradient id="XMLID_12_" cx="226.1685" cy="445.7893" r="8.162" gradientTransform="matrix(1.8107 -3.1815 -3.2189 -1.832 1332.3776 1975.6075)" gradientUnits="userSpaceOnUse">
			<stop  offset="0.129" style="stop-color:#442A17"/>
			<stop  offset="0.4047" style="stop-color:#3F2716"/>
			<stop  offset="0.7969" style="stop-color:#321E11"/>
			<stop  offset="1" style="stop-color:#29170D"/>
		</radialGradient>
		<path id="XMLID_4_" class="st3" d="M335.8,410.5c-2.1-0.1-4-0.1-6.2-0.1c0.1,1.9,0.1,3.5,0.2,5.5c1.9,0,3.6,0.1,5.5,0.1
			c1.5,0,2.9-1,3-2.5C338.5,412,337.4,410.6,335.8,410.5z"/>
		
			<radialGradient id="XMLID_13_" cx="352.8158" cy="407.4736" r="8.162" gradientTransform="matrix(-1.8107 3.1815 3.2189 1.832 -365.0126 -1481.934)" gradientUnits="userSpaceOnUse">
			<stop  offset="0.129" style="stop-color:#442A17"/>
			<stop  offset="0.4047" style="stop-color:#3F2716"/>
			<stop  offset="0.7969" style="stop-color:#321E11"/>
			<stop  offset="1" style="stop-color:#29170D"/>
		</radialGradient>
		<path id="XMLID_3_" class="st4" d="M278.9,415.9c2.1,0.1,4,0.1,6.2,0.1c-0.1-1.9-0.1-3.5-0.2-5.5c-1.9,0-3.6-0.1-5.5-0.1
			c-1.5,0-2.9,1-3,2.5C276.2,414.4,277.3,415.8,278.9,415.9z"/>
		
			<radialGradient id="XMLID_14_" cx="305.45" cy="372.8865" r="17.5467" gradientTransform="matrix(1 0 0 -0.9685 0 774.2051)" gradientUnits="userSpaceOnUse">
			<stop  offset="0.129" style="stop-color:#442A17"/>
			<stop  offset="0.4047" style="stop-color:#3F2716"/>
			<stop  offset="0.7969" style="stop-color:#321E11"/>
			<stop  offset="1" style="stop-color:#29170D"/>
		</radialGradient>
		<rect id="XMLID_2_" x="280.8" y="410.3" class="st5" width="49.3" height="5.5"/>
	</g>
</g>
</svg>
