<?xml version="1.0" encoding="utf-8"?>
<!-- Generator: Adobe Illustrator 19.0.0, SVG Export Plug-In . SVG Version: 6.00 Build 0)  -->
<!DOCTYPE svg PUBLIC "-//W3C//DTD SVG 1.1//EN" "http://www.w3.org/Graphics/SVG/1.1/DTD/svg11.dtd">
<svg version="1.1" id="Layer_1" xmlns="http://www.w3.org/2000/svg" xmlns:xlink="http://www.w3.org/1999/xlink" x="0px" y="0px"
	 viewBox="234.3 324.3 143.4 143.4" style="enable-background:new 234.3 324.3 143.4 143.4;" xml:space="preserve">
<style type="text/css">
	.st0{fill:url(#XMLID_5_);}
	.st1{fill:url(#XMLID_7_);}
	.st2{fill:url(#XMLID_8_);}
	.st3{fill:url(#XMLID_9_);}
</style>
<linearGradient id="XMLID_5_" gradientUnits="userSpaceOnUse" x1="306" y1="468.1609" x2="306" y2="340.0031" gradientTransform="matrix(1 0 0 -1 3.051758e-06 792)">
	<stop  offset="0" style="stop-color:#FED70E"/>
	<stop  offset="1" style="stop-color:#F69221"/>
</linearGradient>
<path id="XMLID_6_" class="st0" d="M377.7,396c0,39.6-32.1,71.7-71.7,71.7s-71.7-32.1-71.7-71.7s32.1-71.7,71.7-71.7
	S377.7,356.4,377.7,396z"/>
<g>
	
		<radialGradient id="XMLID_7_" cx="250.6998" cy="381.0002" r="8.1313" gradientTransform="matrix(3.7037 0 0 -3.7037 -622.5169 1830.1914)" gradientUnits="userSpaceOnUse">
		<stop  offset="0.129" style="stop-color:#442A17"/>
		<stop  offset="0.4047" style="stop-color:#3F2716"/>
		<stop  offset="0.7969" style="stop-color:#321E11"/>
		<stop  offset="1" style="stop-color:#29170D"/>
	</radialGradient>
	<path id="XMLID_3_" class="st1" d="M306,433.8c-17,0-32.6-10.1-39.7-25.6c-0.6-1.4,0-3,1.4-3.7c1.4-0.6,3,0,3.7,1.4
		c6.2,13.6,19.8,22.4,34.6,22.4c14.9,0,28.5-8.8,34.6-22.4c0.6-1.4,2.3-2,3.7-1.4c1.4,0.6,2,2.3,1.4,3.7
		C338.6,423.8,323,433.8,306,433.8z"/>
</g>
<g>
	
		<radialGradient id="XMLID_8_" cx="244.6518" cy="391.4711" r="1.9339" gradientTransform="matrix(3.7037 0 0 -3.7037 -622.5169 1830.1914)" gradientUnits="userSpaceOnUse">
		<stop  offset="0.129" style="stop-color:#442A17"/>
		<stop  offset="0.4047" style="stop-color:#3F2716"/>
		<stop  offset="0.7969" style="stop-color:#321E11"/>
		<stop  offset="1" style="stop-color:#29170D"/>
	</radialGradient>
	<circle id="XMLID_2_" class="st2" cx="283.6" cy="380.3" r="7.2"/>
	
		<radialGradient id="XMLID_9_" cx="256.7478" cy="391.4711" r="1.9367" gradientTransform="matrix(3.7037 0 0 -3.7037 -622.5169 1830.1914)" gradientUnits="userSpaceOnUse">
		<stop  offset="0.129" style="stop-color:#442A17"/>
		<stop  offset="0.4047" style="stop-color:#3F2716"/>
		<stop  offset="0.7969" style="stop-color:#321E11"/>
		<stop  offset="1" style="stop-color:#29170D"/>
	</radialGradient>
	<path id="XMLID_1_" class="st3" d="M335.6,380.3c0,4-3.2,7.2-7.2,7.2s-7.2-3.2-7.2-7.2s3.2-7.2,7.2-7.2
		C332.4,373.1,335.6,376.4,335.6,380.3z"/>
</g>
</svg>
