<?xml version="1.0" encoding="utf-8"?>
<!-- Generator: Adobe Illustrator 19.0.0, SVG Export Plug-In . SVG Version: 6.00 Build 0)  -->
<!DOCTYPE svg PUBLIC "-//W3C//DTD SVG 1.1//EN" "http://www.w3.org/Graphics/SVG/1.1/DTD/svg11.dtd">
<svg version="1.1" id="Layer_1" xmlns="http://www.w3.org/2000/svg" xmlns:xlink="http://www.w3.org/1999/xlink" x="0px" y="0px"
	 viewBox="235.3 324.3 143.4 143.4" style="enable-background:new 235.3 324.3 143.4 143.4;" xml:space="preserve">
<style type="text/css">
	.st0{fill:url(#XMLID_5_);}
	.st1{fill:url(#XMLID_7_);}
	.st2{fill:url(#XMLID_8_);}
	.st3{fill:url(#XMLID_9_);}
</style>
<linearGradient id="XMLID_5_" gradientUnits="userSpaceOnUse" x1="307" y1="468.1609" x2="307" y2="340.0031" gradientTransform="matrix(1 0 0 -1 0 792)">
	<stop  offset="0" style="stop-color:#FED70E"/>
	<stop  offset="1" style="stop-color:#F69221"/>
</linearGradient>
<path id="XMLID_6_" class="st0" d="M378.7,396c0,39.6-32.1,71.7-71.7,71.7s-71.7-32.1-71.7-71.7s32.1-71.7,71.7-71.7
	S378.7,356.4,378.7,396z"/>
<g>
	
		<radialGradient id="XMLID_7_" cx="250.9698" cy="381.6523" r="8.1282" gradientTransform="matrix(3.7037 0 0 -3.7037 -622.5169 1830.1914)" gradientUnits="userSpaceOnUse">
		<stop  offset="0.129" style="stop-color:#442A17"/>
		<stop  offset="0.4047" style="stop-color:#3F2716"/>
		<stop  offset="0.7969" style="stop-color:#321E11"/>
		<stop  offset="1" style="stop-color:#29170D"/>
	</radialGradient>
	<path id="XMLID_3_" class="st1" d="M269.8,431.4c-0.4,0-0.8-0.1-1.1-0.2c-1.4-0.6-2-2.3-1.4-3.7c7.1-15.6,22.7-25.6,39.7-25.6
		s32.6,10.1,39.7,25.6c0.6,1.4,0,3-1.4,3.7c-1.4,0.6-3,0-3.7-1.4c-6.2-13.6-19.8-22.4-34.6-22.4c-14.9,0-28.5,8.8-34.6,22.4
		C271.9,430.8,270.9,431.4,269.8,431.4z"/>
</g>
<g>
	
		<radialGradient id="XMLID_8_" cx="244.9175" cy="391.9366" r="1.9362" gradientTransform="matrix(3.7037 0 0 -3.7037 -622.5169 1830.1914)" gradientUnits="userSpaceOnUse">
		<stop  offset="0.129" style="stop-color:#442A17"/>
		<stop  offset="0.4047" style="stop-color:#3F2716"/>
		<stop  offset="0.7969" style="stop-color:#321E11"/>
		<stop  offset="1" style="stop-color:#29170D"/>
	</radialGradient>
	<path id="XMLID_2_" class="st2" d="M291.8,378.6c0,4-3.2,7.2-7.2,7.2s-7.2-3.2-7.2-7.2s3.2-7.2,7.2-7.2
		C288.6,371.4,291.8,374.6,291.8,378.6z"/>
	
		<radialGradient id="XMLID_9_" cx="257.0178" cy="391.9366" r="1.9378" gradientTransform="matrix(3.7037 0 0 -3.7037 -622.5169 1830.1914)" gradientUnits="userSpaceOnUse">
		<stop  offset="0.129" style="stop-color:#442A17"/>
		<stop  offset="0.4047" style="stop-color:#3F2716"/>
		<stop  offset="0.7969" style="stop-color:#321E11"/>
		<stop  offset="1" style="stop-color:#29170D"/>
	</radialGradient>
	<path id="XMLID_1_" class="st3" d="M336.6,378.6c0,4-3.2,7.2-7.2,7.2s-7.2-3.2-7.2-7.2s3.2-7.2,7.2-7.2S336.6,374.6,336.6,378.6z"
		/>
</g>
</svg>
